<?xml version="1.0" encoding="UTF-8" standalone="no"?>
<!-- Created with Inkscape (http://www.inkscape.org/) -->

<svg
   version="1.1"
   id="svg1"
   width="1097.3333"
   height="1096"
   viewBox="0 0 1097.3333 1096"
   xml:space="preserve"
   xmlns:xlink="http://www.w3.org/1999/xlink"
   xmlns="http://www.w3.org/2000/svg"
   xmlns:svg="http://www.w3.org/2000/svg"><defs
     id="defs1" /><image
     width="1097.3333"
     height="1096"
     preserveAspectRatio="none"
     xlink:href="map.png"
     id="image1"
     x="7.0358914e-09"
     y="0" /><g
     id="g1"
     transform="translate(-0.16069136,-0.12831311)"><path
       style="fill:#000000;fill-opacity:0.502242"
       d="m 89.262018,18.663877 h 29.618762 l 0.12832,91.300533 9.52073,9.99676 v 4.52235 l -6.42649,7.37856 -2.85622,5.71244 -0.71406,52.364 -19.041452,-0.23801 0.476036,-53.5541 h -9.044691 l 0.238018,-9.99676 h 4.284327 l -0.476036,-23.32579 -13.091001,-0.23802 0.238018,-50.221836 6.426492,-0.238018 z"
       id="path2"><title
         id="title1">Parcelle 1</title></path><path
       style="fill:#000000;fill-opacity:0.502242"
       d="m 122.34136,18.327401 -0.23802,90.208899 8.09262,9.28271 2.14216,4.04631 16.89929,-0.47604 93.06512,31.4184 7.8546,4.04631 9.52073,5.71244 9.04469,6.18847 3.57027,-2.14216 5.95046,-13.80506 -2.85622,-18.56541 -0.95207,-11.18686 9.75874,-14.51911 7.8546,-4.76036 22.37371,-7.378569 0.95208,-1.666127 7.14054,-4.284328 -4.28433,-7.616582 -19.27947,-11.186856 -3.33225,-2.380182 -9.52073,-0.238018 -11.18686,-0.476036 -8.33064,1.904145 -9.04469,2.618201 -5.2364,2.142163 -7.37856,-0.952072 -12.61497,-6.426492 -6.66451,-7.378564 -3.09423,-11.424874 2.38018,-10.234782 5.47442,-10.710819 7.8546,-5.236401 10.71082,-3.570273 v -6.902528 l -9.99677,0.476037 -13.56703,1.904145 -18.32741,1.904146 -19.04145,0.952073 -22.61173,1.190091 z"
       id="path3"><title
         id="title2">Parcelle 2</title></path><path
       style="fill:#000000;fill-opacity:0.502242"
       d="m 121.53861,150.01228 55.22745,0.19109 3.24867,4.01307 7.26174,0.3822 3.82197,3.63087 0.1911,32.67783 -4.58636,4.39527 v 44.14374 l -33.44223,-0.1911 0.1911,27.32707 -2.48428,2.48428 h -14.71458 l 0.1911,-20.63863 -13.95019,-29.62026 z"
       id="path4"><title
         id="title4">Parcelle 3</title></path><path
       style="fill:#000000;fill-opacity:0.502242"
       d="m 131.7974,123.97269 16.13846,0.48905 55.01747,18.09463 8.55827,2.2007 10.51445,4.89044 12.71515,3.17879 13.93775,6.35757 15.89394,10.26993 12.95967,11.00349 -0.24452,2.93427 -14.67133,14.91585 -13.69323,14.4268 -15.64942,16.13846 0.24453,1.71165 -46.94824,46.21467 0.24452,1.46714 -15.64941,14.67132 -0.24453,1.71165 -9.78088,10.26993 -9.53636,18.09464 -4.4014,16.6275 -1.46713,4.40139 0.24452,19.31725 -5.86853,-0.24452 -8.80279,-0.48905 -0.24453,-91.20673 21.76247,0.24452 4.64592,-5.86853 -0.24452,-24.69673 32.03239,0.48904 0.24452,-46.70371 4.64592,-3.66783 -0.24452,-34.2331 -6.11305,-5.13496 h -7.33567 l -4.15687,-4.15687 h -54.77295 v -9.78089 l 3.66783,-5.62401 4.15688,-4.40139 z"
       id="path5"><title
         id="title5">Parcelle 4</title></path><path
       style="fill:#000000;fill-opacity:0.502242"
       d="m 251.51603,12.470627 -0.15025,9.014912 -9.61591,2.704473 -7.36218,4.657704 -3.75621,4.507456 -3.00497,6.310438 -1.20199,6.460686 -0.15025,7.812923 4.35721,8.263669 6.00994,4.507456 7.96317,4.05671 7.96318,1.051739 14.72435,-4.357207 9.61591,-1.652733 11.71938,0.450745 7.21193,1.05174 8.11342,2.854722 8.86466,5.408946 7.51243,5.859693 6.00994,9.315408 -8.6954,5.588393 -1.7041,3.74902 -18.74511,4.88509 -11.36067,5.1123 -8.4069,13.17838 0.45443,8.17969 3.18099,19.42675 v 2.72656 l -4.77148,12.61034 -5.68034,5.11231 9.77018,9.42935 14.31444,15.90494 23.74381,9.9974 25.67512,-28.17447 8.7159,-5.91513 8.91596,-1.48599 14.39557,0.0929 12.53807,5.47961 14.95281,10.2162 0.28815,-158.341213 -95.31123,0.354317 -0.70864,-1.06295 h -5.49191 l -21.96764,-7.97213 -4.60612,-0.177158 -5.66907,-5.66907 -6.02339,-1.771584 z"
       id="path6"><title
         id="title3">Parcelle 5</title></path><path
       style="fill:#000000;fill-opacity:0.502242"
       d="m 406.52519,29.121636 0.3212,158.991284 21.94829,14.13256 14.66788,6.31682 14.56082,5.88857 4.38966,-0.32119 5.56737,2.24836 9.7429,6.20976 6.20976,4.28259 6.95921,6.1027 10.17116,14.34669 7.38748,8.56518 12.95484,14.98908 5.67444,8.77932 0.32119,11.88419 -15.84559,19.05755 -5.56737,7.81573 -0.96359,15.09614 1.8201,27.4086 4.38966,11.99126 13.38311,9.20758 20.44938,8.13693 22.16242,5.4603 12.20539,1.39184 5.46031,-2.24836 7.70867,-11.2418 2.46249,-10.38529 -0.42826,-13.38311 1.49891,-8.56519 3.9614,-8.77931 2.35542,-3.31901 -0.10706,-177.94176 -3.74727,-3.74727 -4.60379,-17.23744 1.92717,-5.67444 -3.53314,-12.95484 v -12.52659 l -4.17553,-9.100511 -1.17771,-6.209761 -3.85434,-8.136927 -0.74945,-6.85215 -2.35543,-3.426075 0.53533,-18.950476 0.96358,-6.530955 0.42826,-31.584128 h -49.67808 l -14.98908,2.997816 -12.52659,0.642389 -17.45157,2.248361 -19.1646,0.963584 -7.81574,1.498908 -14.66788,0.428259 -14.23962,1.391843 z"
       id="path7"><title
         id="title55">Parcelle 6</title></path><path
       style="fill:#000000;fill-opacity:0.502242"
       d="m 784.55956,12.760468 0.20919,32.424138 1.15054,0.418376 0.10459,4.18376 -1.6735,1.464316 0.52297,48.845392 -193.4989,0.20919 0.20919,-5.752668 -4.18376,-7.949143 0.31378,-4.497542 -3.55619,-6.694016 0.10459,-18.408543 0.73216,-5.438888 -0.52297,-35.248177 1.7781,-1.673504 10.4594,0.104594 3.97457,-1.778097 z"
       id="path8"><title
         id="title56">Parcelle 7</title></path><path
       style="fill:#000000;fill-opacity:0.502242"
       d="m 592.66162,103.24589 3.41744,6.57198 -0.52576,11.36954 2.69451,6.76914 0.26288,5.32331 0.78864,5.91479 -0.46004,4.60039 3.87433,14.4592 3.55201,0.19632 10.5809,6.04623 15.9042,4.66611 8.6093,1.44584 12.23068,1.10434 37.83509,0.27718 31.32135,6.65232 14.69054,0.41577 26.74789,0.69295 11.78015,-3.74193 5.40501,-3.32616 3.32616,-8.3154 0.55436,-6.23655 0.83154,-36.3106 -1.80167,-3.74193 0.83154,-14.96773 z"
       id="path9"><title
         id="title57">Parcelle 8</title></path><path
       style="fill:#000000;fill-opacity:0.502242"
       d="m 787.72457,12.535658 h 115.04499 l -0.20219,21.836307 -0.80875,25.880068 -6.8744,19.410051 -3.63938,15.972854 -4.24595,12.940032 -4.24595,15.56848 3.4372,10.31159 6.06564,17.18598 11.7269,23.25163 -3.235,2.22406 -3.84158,-3.84157 -4.04376,-4.85251 -17.59036,-7.07658 -16.98379,-4.24595 -13.5466,-1.01094 -17.18598,-0.80875 -12.53566,-3.4372 -13.5466,-5.0547 -6.47001,-8.08752 -5.0547,-7.88533 -1.21313,-10.10941 -1.41532,-5.86345 0.60657,-63.284852 1.41531,-2.426257 v -4.245948 l -1.81969,-1.819692 z"
       id="path10"><title
         id="title58">Parcelle 9</title></path><path
       style="fill:#000000;fill-opacity:0.502242"
       d="m 921.33558,12.429772 -0.34054,24.519003 -0.51082,25.881169 -3.23514,7.321647 -1.87298,9.875709 -2.38379,5.448668 -2.3838,2.894604 -0.85135,7.832459 -3.57569,10.897339 -5.27839,16.68654 3.74596,6.12975 v 3.23515 l 2.04325,3.40541 91.26517,0.68109 0.34054,7.66218 76.6219,0.85136 0.6811,-6.12975 3.5757,-4.0865 v -4.25677 l 6.8108,-15.66492 1.7027,-10.72707 0.8514,-78.494858 -2.7244,-4.0865 -5.9595,-3.064876 -8.3432,-2.04325 -7.8325,-2.383792 -9.5352,-2.383792 z"
       id="path11"><title
         id="title59">Parcelle 10</title></path><path
       style="fill:#000000;fill-opacity:0.502242"
       d="m 907.36968,139.49901 87.40602,-0.25045 0.75134,8.01431 83.89976,0.75134 -3.0054,14.77638 -3.2558,23.04112 -0.5009,39.06974 -72.6296,0.5009 -22.03935,15.02682 -41.32377,0.25045 1.75313,-9.26654 0.5009,-12.02146 -2.25403,-7.51341 1.00179,-6.51163 -2.00357,-4.50804 -0.75135,-7.76386 -6.26117,-9.76744 0.25044,-3.50625 -7.76385,-9.76744 -0.25045,-3.00536 z"
       id="path12"><title
         id="title60">Parcelle 11</title></path><path
       style="fill:#000000;fill-opacity:0.502242"
       d="m 145.54571,366.28332 h -6.45078 l -2.01587,-1.81428 -50.396711,0.80635 12.498385,9.27299 3.426976,5.03967 2.62063,5.84602 1.41111,5.64443 0.20158,4.43492 1.00794,6.0476 0.20159,5.44285 1.4111,3.42697 -0.40317,72.57127 1.6127,2.62063 v 9.273 l 1.4111,10.48251 0.40318,5.84602 v 15.72378 4.23332 l -1.41111,8.66824 0.20159,0.80634 15.72377,0.80635 -0.60476,-6.45078 -3.22539,-15.52219 -1.41111,-12.29679 v -8.06348 l -1.41111,-2.62063 0.40318,-24.59359 -2.01587,-3.42698 0.20159,-40.51896 2.41904,-2.01587 -0.60476,-24.19042 25.19836,-0.20159 z"
       id="path13"><title
         id="title61">Parcelle 12</title></path><path
       style="fill:#000000;fill-opacity:0.502242"
       d="m 123.12463,404.03864 h 26.17836 l 1.43838,1.00686 h 9.49325 l 1.1507,1.1507 h 5.0343 l 77.81591,35.38395 8.63023,0.14383 3.73977,2.58907 -0.14384,79.54196 -8.63023,-3.59592 -19.84953,0.43151 -10.0686,2.44523 -5.60965,4.02744 -6.90418,5.0343 -6.47268,7.76721 -68.4665,0.43151 -2.7329,-14.67139 -2.15756,-19.99337 -1.72605,-19.56186 0.14384,-14.38371 -2.15756,-5.75349 -0.28767,-36.53465 2.87674,-3.8836 z"
       id="path14"><title
         id="title62">Parcelle 13</title></path><path
       style="fill:#000000;fill-opacity:0.502242"
       d="m 279.50907,186.29328 -12.30891,12.0323 -30.42652,31.80955 -33.60747,34.99049 -18.11761,18.53252 -14.52175,15.21326 -6.50021,7.46833 -5.947,12.0323 -3.87247,10.37268 -5.11719,16.59628 0.69151,55.45925 1.38303,1.52132 h 10.78758 l 9.95777,3.18096 33.33087,14.10684 42.32052,19.08572 7.60663,1.38303 4.70228,1.93623 5.6704,-1.10642 7.19172,0.1383 17.97931,-4.84058 12.58551,-5.8087 9.68117,-8.57475 4.14907,-2.62774 2.21284,-3.04265 23.23479,-24.06461 9.26626,-10.92589 2.90435,-1.10642 5.25549,-4.42567 7.60663,0.1383 2.62774,-1.38302 h 6.63852 l 0.55321,-82.84312 -2.90435,-11.6174 -2.07454,-11.47909 -2.07453,-8.71305 -14.10684,-18.11761 -6.08531,-7.60663 -11.6174,-12.17061 -5.947,-5.67039 -18.67082,-8.29814 -10.51097,-3.45756 -8.71305,-3.73417 -2.90435,-2.07453 z"
       id="path15"><title
         id="title63">Parcelle 14</title></path><path
       style="fill:#000000;fill-opacity:0.502242"
       d="m 323.22199,207.57069 16.48979,-19.27522 9.5819,-9.5819 9.91615,-4.12244 15.3756,-0.22284 8.46773,3.7882 19.8323,12.03308 23.39767,15.15277 12.25592,5.01379 15.59844,5.7937 4.34528,1.67127 h 4.4567 l 8.91339,4.56811 4.67953,3.78819 9.5819,8.57915 18.27246,23.62049 17.04687,19.83231 1.78268,8.13347 -2.45118,6.46221 -7.68781,8.57915 -9.47048,11.47599 -4.01103,9.69332 0.33426,20.05514 1.89409,16.93545 3.45394,11.58741 -125.12178,-0.11141 0.44567,-79.99773 -5.12521,-25.84884 -2.33976,-8.13347 -11.58742,-15.70986 -15.93269,-18.27246 -11.36458,-9.47049 z"
       id="path16"><title
         id="title64">Parcelle 15</title></path><path
       style="fill:#000000;fill-opacity:0.502242"
       d="m 605.45319,162.09711 0.13211,171.47682 7.53018,-5.15223 6.2091,-2.11374 10.17236,-1.05687 6.47331,0.26422 7.53019,2.64217 16.11723,6.2091 10.43657,2.77428 4.09536,0.52843 10.56868,0.39633 9.37971,-1.71741 21.26946,-2.37796 14.39983,-2.11373 21.66579,0.26421 6.73753,2.24585 7.26597,6.60542 6.47331,11.62555 7.39808,10.17235 12.94663,11.62555 13.60718,9.24759 18.36307,7.39808 19.28784,5.15223 3.17061,3.96325 4.62379,11.62555 2.24585,4.75591 5.94488,2.64217 8.58705,-0.79265 10.04025,-5.28434 12.94663,-11.09712 7.39807,-6.07699 9.64392,-5.28434 24.44007,-6.2091 9.2476,-2.37795 -26.15748,-12.4182 -9.2476,-10.83289 -9.11548,-17.83465 -3.0385,-22.45844 -0.92476,-19.81627 3.30271,-13.87139 6.2091,-17.43832 20.08049,-36.85827 -4.7559,-26.28959 -7.53019,-19.55206 -5.41644,-6.07699 -5.68067,1.5853 -8.71916,-10.56867 -32.23447,-9.51181 -34.74453,-2.64217 -16.38145,-4.22748 -10.56868,-7.13385 -7.26597,-12.15399 -1.32108,34.87665 -6.34121,8.98337 -15.72091,5.02012 -7.26597,0.52844 -37.3867,-1.32109 -32.36658,-7.92651 -39.23622,1.32109 -22.85477,-3.69904 -14.26771,-5.15223 z"
       id="path17"><title
         id="title65">Parcelle 16</title></path><path
       style="fill:#000000;fill-opacity:0.502242"
       d="m 1072.3351,227.88802 0.3363,342.25249 -64.9186,0.16819 -0.6727,-7.73642 v -38.17755 l 2.3545,-8.40915 9.2501,-21.52743 21.5274,-31.95478 5.5501,-18.33195 v -12.9501 l -8.4092,-11.60463 -15.1365,-17.49103 -14.4637,-9.9228 -13.45465,-9.25007 -64.24592,-25.39564 -12.10918,-15.80921 -7.23187,-6.22277 -1.17728,-21.19106 3.36366,-3.53185 -0.33637,-14.12737 4.37276,-17.65922 17.32285,-30.44113 1.34547,-5.71823 44.40032,-0.16818 21.02291,-14.46374 z"
       id="path18"><title
         id="title66">Parcelle 17</title></path><path
       style="fill:#000000;fill-opacity:0.502242"
       d="m 259.30377,444.71551 0.0185,80.23619 3.38207,2.37659 128.15293,0.0914 v -5.85006 l -4.93599,-2.65081 -4.84458,-5.85007 -2.74222,-5.75865 -1.09689,-5.11881 -0.35198,-125.08461 -16.3575,1.76838 -9.50503,6.41037 -22.54683,24.53625 -23.20996,22.76787 -21.44159,9.50503 z"
       id="path19"><title
         id="title67">Parcelle 18</title></path><path
       style="fill:#000000;fill-opacity:0.502242"
       d="m 379.54898,374.12229 126.40992,-0.95765 11.49181,10.21494 20.11067,9.57651 16.59928,4.14982 V 518.40836 H 388.80627 l -8.29964,-10.85338 -1.27687,-11.17259 z"
       id="path20"><title
         id="title68">Parcelle 19</title></path><path
       style="fill:#000000;fill-opacity:0.502242"
       d="m 558.31048,397.74434 17.23772,2.55374 9.57651,-2.23452 23.62205,22.34519 0.31922,148.43589 -52.6708,0.95765 z"
       id="path21"><title
         id="title69">Parcelle 20</title></path><path
       style="fill:#000000;fill-opacity:0.502242"
       d="m 587.67844,395.19061 24.57971,24.26049 0.31922,51.07471 145.24372,0.95765 0.31921,-118.42949 6.06513,-2.23452 -9.57651,-13.72633 -14.04555,-3.51139 -25.53736,2.87296 -28.41031,4.14982 -24.26049,-0.31922 -21.06832,-9.25729 -11.81102,-2.23452 -12.76868,1.59608 -8.29964,6.06513 -5.74591,12.13024 -2.87295,13.40711 -0.63844,15.32242 -4.78825,12.13024 z"
       id="path22"><title
         id="title70">Parcelle 21</title></path><path
       style="fill:#000000;fill-opacity:0.502242"
       d="m 612.57737,473.71798 v 95.12666 l 145.24372,0.95765 -0.31922,-95.76509 z"
       id="path23"><title
         id="title71">Parcelle 22</title></path><path
       style="fill:#000000;fill-opacity:0.502242"
       d="m 766.12073,352.73475 -4.78826,3.51139 0.31922,213.23693 52.99002,0.31922 19.79145,-8.93807 23.30284,-9.57651 6.70356,-7.34199 14.04554,-31.28327 5.42669,-12.76867 -3.19217,-3.51139 0.95765,-17.87615 -4.14982,-6.38434 -18.8338,-8.93808 -7.34199,-7.6612 -4.78826,-10.21495 2.23452,-11.49181 8.93808,-11.49181 -9.57651,-6.70355 -6.38434,-15.96085 -31.9217,-9.2573 -11.49181,-6.70355 -11.49181,-9.25729 -10.53416,-8.93808 -7.02277,-6.38434 z"
       id="path24"><title
         id="title72">Parcelle 23</title></path><path
       style="fill:#000000;fill-opacity:0.502242"
       d="m 944.2438,382.10271 12.44946,6.06513 15.96085,2.87295 12.44946,8.61886 17.87613,7.34199 25.8566,30.64483 -3.1922,20.11067 -24.8989,43.09429 -7.66121,18.51458 -0.95765,44.69038 h -5.42669 l -1.27686,-7.66121 -10.85338,-7.66121 -11.17259,-1.27687 -30.0064,-17.23771 -12.76868,-19.79145 -14.04554,-7.66121 -21.38754,-5.74591 -1.27687,-20.42988 -9.57651,-9.2573 -14.36476,-5.42668 -7.34199,-10.53416 -1.9153,-12.13025 7.02277,-12.44946 12.76868,-7.34199 17.87615,-12.44946 19.79145,-13.72633 27.13344,-7.02278 z"
       id="path25"><title
         id="title73">Parcelle 24</title></path><path
       style="fill:#000000;fill-opacity:0.502242"
       d="m 111.31517,543.62508 h 19.4262 l 0.30835,163.11835 9.25057,45.94449 -63.520571,0.30836 -0.925057,-15.41762 -1.850114,-6.78375 -6.167046,-16.03432 3.391875,-40.7025 1.23341,-9.25057 -2.466819,-7.7088 1.541762,-20.0429 4.316932,-13.5675 11.717386,-6.78375 6.167046,0.30835 10.483976,-16.34267 4.31693,-25.90159 z"
       id="path26"><title
         id="title74">Parcelle 25</title></path><path
       style="fill:#000000;fill-opacity:0.502242"
       d="m 143.07546,752.37957 110.39012,0.30835 3.70022,-12.64244 6.4754,-5.85869 0.30835,-117.79058 4.93364,0.61671 -0.92506,-19.11784 8.63387,-26.20995 -4.31693,-23.74312 -8.63387,-16.03432 -14.80091,-8.01716 -20.6596,0.6167 -16.03432,6.16705 -12.33409,13.5675 h -65.98739 v 161.5766 z"
       id="path27"><title
         id="title75">Parcelle 26</title></path><path
       style="fill:#000000;fill-opacity:0.502242"
       d="m 266.10802,731.71997 0.61671,-112.24023 h 4.00857 l 5.55035,8.94221 16.95937,6.4754 22.20137,1.23341 16.34267,-0.92506 29.60182,-2.15846 24.35983,10.17562 14.80091,8.32551 11.10068,1.23341 v 3.39188 l -12.02574,8.01716 -17.57608,8.32551 -16.34267,-0.92506 -18.19279,-2.77517 -14.80091,5.55034 -11.71738,13.25915 -16.03432,11.10068 -12.9508,12.64245 z"
       id="path28"><title
         id="title76">Parcelle 27</title></path><path
       style="fill:#000000;fill-opacity:0.502242"
       d="m 265.49132,530.36593 124.26597,-0.61671 1.54176,113.47364 -30.52688,-13.87585 -41.93591,4.00858 -26.82665,-1.54176 -16.65102,-7.70881 -3.70023,-11.40903 0.92506,-15.10926 6.4754,-22.20137 0.30835,-18.80949 -4.31693,-14.80091 z"
       id="path29"><title
         id="title77">Parcelle 28</title></path><path
       style="fill:#000000;fill-opacity:0.502242"
       d="m 393.45751,520.80701 61.36211,0.30835 0.30835,138.75853 -39.77744,-9.25057 -21.58466,-6.16705 z"
       id="path30"><title
         id="title78">Parcelle 29</title></path><path
       style="fill:#000000;fill-opacity:0.502242"
       d="m 457.90314,521.42371 49.64472,-0.30835 0.30835,173.91069 -35.76886,-26.82665 -13.87586,-6.4754 z"
       id="path31"><title
         id="title79">Parcelle 30</title></path><path
       style="fill:#000000;fill-opacity:0.502242"
       d="m 511.24809,521.73206 h 42.24426 l 0.6167,176.99421 3.08353,5.55035 -9.86728,2.77517 -36.69392,-9.86728 z"
       id="path32"><title
         id="title80">Parcelle 31</title></path><path
       style="fill:#000000;fill-opacity:0.502242"
       d="m 556.88422,572.30184 85.41359,0.6167 -0.30836,139.68359 -3.70022,7.7088 -0.30836,5.8587 4.62529,6.78375 -2.46682,16.34267 -47.7946,-30.21853 -18.80949,-6.47539 -9.86728,-5.24199 -5.85869,-8.63387 z"
       id="path33"><title
         id="title81">Parcelle 32</title></path><path
       style="fill:#000000;fill-opacity:0.502242"
       d="m 644.45627,573.22689 168.052,-0.6167 -24.97654,34.53546 -23.74312,32.99369 -17.26773,29.91017 -18.80949,37.61898 -10.48398,25.59324 -12.02574,21.89301 -12.02574,8.01716 -14.49255,3.08352 -34.53546,-12.95079 0.30835,-17.57608 20.0429,14.1842 20.6596,2.15847 13.25915,-13.5675 -6.4754,-18.19279 -16.34267,-10.17562 -17.57608,-2.15847 -12.95079,2.46682 z"
       id="path34"><title
         id="title82">Parcelle 33</title></path><path
       style="fill:#000000;fill-opacity:0.502242"
       d="m 815.28344,573.22689 -30.21853,42.55262 -36.38557,53.6533 142.15041,0.6167 92.50568,-105.14813 0.30835,-7.40045 -8.94221,-6.4754 -9.86728,-0.92506 -32.99369,-17.57608 -13.5675,-20.35125 -26.20994,-11.10068 h -7.09211 l -18.19278,45.01943 -10.17563,10.17563 -17.57608,7.40045 z"
       id="path35"><title
         id="title83">Parcelle 34</title></path><path
       style="fill:#000000;fill-opacity:0.502242"
       d="m 876.02884,672.51633 v 42.86097 l 149.24246,0.30835 v -31.14358 l -7.4004,-33.6104 -4.9336,-18.50114 -17.88448,-26.51829 -4.31693,-40.0858 h -4.31694 l -93.73909,107.61495 z"
       id="path36"><title
         id="title84">Parcelle 35</title></path><path
       style="fill:#000000;fill-opacity:0.502242"
       d="m 1007.0786,571.99349 65.3706,0.30835 v 171.44387 l -27.7517,42.24426 -26.8266,-23.74313 24.6682,-40.7025 -1.8501,-38.54403 -4.0086,-32.9937 -10.1756,-20.6596 -12.9508,-26.82665 -6.1671,-13.25915 z"
       id="path37"><title
         id="title85">Parcelle 36</title></path><path
       style="fill:#000000;fill-opacity:0.502242"
       d="m 333.06982,676.04064 -73.66348,66.13871 -3.56436,15.84161 11.8812,29.70302 17.82181,18.21785 20.59409,20.59409 14.25745,-23.36638 12.27725,-11.8812 1.9802,-15.84161 z"
       id="path38"><title
         id="title86">Parcelle 37</title></path><path
       style="fill:#000000;fill-opacity:0.502242"
       d="m 335.8421,674.85252 13.8614,-2.37624 27.72282,4.35644 23.36637,-11.08913 v 97.02985 l -34.05946,-10.29704 -29.70301,21.78221 z"
       id="path39"><title
         id="title87">Parcelle 38</title></path><path
       style="fill:#000000;fill-opacity:0.502242"
       d="m 402.92956,664.80527 0.56991,99.16513 h 9.11863 l 33.62496,1.42478 17.95231,4.27436 15.10273,2.56462 20.51692,-6.26906 11.11334,-13.67795 -3.98941,-11.68325 -17.38239,-15.10273 -6.26906,-13.96291 5.12923,-15.38769 5.12923,-7.40889 -33.62495,-23.65145 -28.78069,-7.40889 h -12.53811 z"
       id="path40"><title
         id="title88">Parcelle 39</title></path><path
       style="fill:#000000;fill-opacity:0.502242"
       d="m 564.78528,782.20766 0.56991,-67.81983 -7.40889,-7.9788 -11.39829,3.9894 -30.49042,-5.69914 -20.23197,-12.53812 -7.9788,15.38769 2.27966,14.24786 13.39299,11.96821 11.68324,12.25316 -1.9947,8.54872 -8.83367,10.82837 13.9629,4.84428 2.84958,4.27435 35.90461,8.83368 z"
       id="path41"><title
         id="title89">Parcelle 40</title></path><path
       style="fill:#000000;fill-opacity:0.502242"
       d="m 568.77468,714.95775 v 67.53487 l 9.9735,-2.27966 17.09744,0.28496 31.91521,10.25846 34.76478,1.9947 12.25317,7.40889 9.40359,19.947 8.54871,12.53812 5.12923,0.85488 -11.9682,-63.54547 -30.20547,-7.12393 -39.60906,-25.07624 -32.48513,-18.52222 z"
       id="path42"><title
         id="title90">Parcelle 41</title></path><path
       style="fill:#000000;fill-opacity:0.502242"
       d="m 746.588,672.49912 125.95111,0.28495 0.28496,58.7012 -151.88222,0.28496 z"
       id="path43"><title
         id="title91">Parcelle 42</title></path><path
       style="fill:#000000;fill-opacity:0.502242"
       d="m 872.53911,734.33484 -153.02205,-0.28496 -10.25846,20.80188 -10.54342,9.97351 -8.83367,4.27436 1.70974,19.37709 9.40359,45.02325 38.18427,1.13982 23.08154,-4.55931 v -41.3188 l 110.56342,0.85487 z"
       id="path44"><title
         id="title92">Parcelle 43</title></path><path
       style="fill:#000000;fill-opacity:0.502242"
       d="m 876.52851,717.23741 147.89279,0.28495 -1.9947,11.39829 -3.4195,6.55402 -9.9735,8.83368 -5.6991,9.68854 -15.3877,23.08154 -7.97881,12.53812 -104.00939,-0.28496 z"
       id="path45"><title
         id="title93">Parcelle 44</title></path><path
       style="fill:#000000;fill-opacity:0.502242"
       d="m 76.368544,755.42168 66.395036,0.28496 18.23727,64.68529 37.89931,98.0253 19.09214,22.22666 38.46923,9.40359 42.74359,6.55402 35.3347,11.9682 0.56991,9.97351 -55.56666,-12.82308 -21.3718,-0.85487 -24.50632,-8.26376 -9.40359,-1.70974 -24.79128,-14.24787 -8.54872,-13.9629 -13.39299,-5.41419 -16.52752,-9.68855 -10.54342,-1.70974 -31.63026,-34.19487 -8.54871,-2.56462 -8.83368,-15.10273 -16.242561,-35.04974 -2.849573,-19.09214 -1.709743,-20.51692 0.284957,-16.81248 -5.414188,-7.69384 z"
       id="path46"><title
         id="title94">Parcelle 45</title></path><path
       style="fill:#000000;fill-opacity:0.502242"
       d="m 164.99025,755.13672 87.48188,0.28496 9.40359,29.63555 29.06564,33.34 24.22136,21.94171 18.80718,24.22137 0.56992,10.82837 -7.40889,2.56462 -86.05709,1.13983 -13.10804,-3.70445 -11.68324,-7.9788 -10.82838,-17.09744 -7.69385,-12.25316 z"
       id="path47"><title
         id="title95">Parcelle 46</title></path><path
       style="fill:#000000;fill-opacity:0.502242"
       d="m 145.61316,755.42168 16.81247,-0.28496 32.48513,81.21282 12.82308,24.79128 8.26376,8.83367 17.09743,10.25847 17.09744,2.56461 22.22666,-0.56991 62.97556,-1.70975 -1.13983,83.77744 -37.61436,-11.68325 -51.2923,-9.40359 -25.64616,-7.9788 -15.67265,-12.82308 -15.67265,-39.60906 -23.65145,-68.6747 z"
       id="path48"><title
         id="title96">Parcelle 47</title></path><path
       style="fill:#000000;fill-opacity:0.502242"
       d="m 337.10443,882.22766 30.20547,-0.28496 25.36119,1.42479 21.65676,2.84957 29.35059,5.12923 h 32.48513 49.2976 v 43.59846 l 9.40359,4.27436 -11.39829,8.26376 12.82308,5.12923 -10.54342,5.12923 -25.93111,3.41949 -17.09743,11.11333 0.56991,17.66735 h -60.41094 l -22.51162,7.69384 -30.49043,-10.25846 -32.77008,-7.9788 z"
       id="path49"><title
         id="title97">Parcelle 48</title></path><path
       style="fill:#000000;fill-opacity:0.502242"
       d="m 527.45588,891.63125 18.52222,-3.13453 20.23196,-8.83368 21.65675,-5.69914 33.34,-1.99471 36.47453,-0.85487 5.69915,5.41419 0.56991,106.28906 -25.64615,-0.28496 -95.17573,7.9788 -55.85162,0.28496 v -17.38239 l 19.94701,-9.68855 19.37709,-2.27966 13.39299,-8.26376 -7.40888,-6.55401 5.9841,-8.26377 -10.25846,-5.9841 z"
       id="path50"><title
         id="title98">Parcelle 49</title></path><path
       style="fill:#000000;fill-opacity:0.502242"
       d="m 669.36459,871.11432 -1.70975,5.12923 0.28496,106.28906 9.11863,-0.28496 32.20017,-16.52752 21.3718,-0.85487 15.67265,-3.9894 105.71914,0.28496 2.84957,1.42478 43.59846,0.28496 9.9735,-7.40889 7.40889,-16.24256 16.52752,-33.05504 -53.287,0.28495 -41.88872,-15.10273 -105.14923,-1.42479 -31.34529,-13.10803 -18.23727,-3.70445 z"
       id="path51"><title
         id="title99">Parcelle 50</title></path><path
       style="fill:#000000;fill-opacity:0.502242"
       d="m 1015.733,763.93623 27.1636,24.41666 -13.4292,17.09166 1.8312,76.60727 6.7146,9.15625 13.124,4.57812 21.0594,5.49375 8.851,8.24062 v 121.47284 l -19.5333,0.3052 1.2208,-37.23536 -25.6375,-1.52604 -13.4292,-13.73437 -5.1885,7.01979 -4.8833,-0.91562 -0.3052,-6.10417 h -23.80628 l -0.91563,-11.2927 -7.6302,-0.91563 -3.05208,-4.57812 -37.23541,0.30521 -0.30521,-7.325 -11.90312,-0.91563 5.79896,-9.76666 -3.35729,-6.40937 5.49374,-0.30521 13.73438,-39.06666 16.48124,-20.14374 12.51354,-34.18332 7.325,-24.72187 1.83125,-12.81875 13.12391,-22.58541 z"
       id="path52"><title
         id="title100">Parcelle 51</title></path><path
       style="fill:#000000;fill-opacity:0.502242"
       d="m 308.71989,827.09448 1.9946,5.98381 21.27574,21.27574 6.42705,23.93521 40.55688,0.66486 23.71359,2.65947 32.13523,5.31894 25.70819,2.43784 69.14616,-1.32973 22.8271,-5.9838 21.27575,-8.20003 33.02172,-4.43244 31.69199,-1.32974 21.27574,1.10811 4.21083,4.21083 4.43244,-6.87029 14.62708,-14.18383 10.41625,-3.76758 6.87029,-10.8595 -7.97841,-1.9946 -16.40005,-23.71358 -8.20002,-13.74059 -19.50277,-5.31893 -33.02172,-1.9946 -24.15683,-8.42165 -14.40545,0.44324 -7.75679,3.32434 -19.72438,-1.32974 -29.69739,-7.31353 -9.30814,-7.09192 -11.74598,-1.32973 -18.17303,6.64867 -11.74598,-2.21623 -25.70819,-6.20542 -33.68659,0.22162 -12.63248,-0.88649 -28.14603,-8.86489 -5.54056,1.10811 -8.86489,9.75138 -10.63787,8.42165 -6.20543,1.55136 -2.21622,13.07571 -9.75138,12.63248 -4.87569,0.44324 z"
       id="path53"><title
         id="title101">Parcelle 52</title></path><path
       style="fill:#000000;fill-opacity:0.502242"
       d="m 671.24966,867.84327 10.95154,-11.75288 14.42399,-5.07511 7.21199,-13.08843 29.11509,-0.53422 37.92975,-5.34222 23.23864,-2.67111 18.16354,0.53422 11.21866,6.94489 6.14355,8.28043 0.80133,13.88977 5.34222,6.67777 17.62932,10.41733 12.82132,5.34221 2.404,16.56088 -31.78619,-9.61599 -5.34222,-1.33556 -95.09148,-0.26711 -22.1702,-6.67777 -21.63598,-7.74622 z"
       id="path54"><title
         id="title102">Parcelle 53</title></path><path
       style="fill:#000000;fill-opacity:0.502242"
       d="m 765.27269,792.25089 0.80133,36.59419 26.17687,-4.27377 27.77953,2.40399 9.61599,8.81466 6.14355,16.82799 3.47244,11.48577 22.17021,9.08177 9.08177,5.60932 2.67111,21.10176 17.3622,4.54089 41.13508,-1.60267 21.10176,-41.40218 -0.26711,-12.2871 5.60933,-5.60933 14.15687,-50.48396 z"
       id="path55"><title
         id="title103">Parcelle 54</title></path></g></svg>
